<?xml version="1.0" encoding="UTF-8" standalone="no"?>
<!-- Created with Inkscape (http://www.inkscape.org/) -->

<svg
   xmlns:dc="http://purl.org/dc/elements/1.1/"
   xmlns:cc="http://creativecommons.org/ns#"
   xmlns:rdf="http://www.w3.org/1999/02/22-rdf-syntax-ns#"
   xmlns:svg="http://www.w3.org/2000/svg"
   xmlns="http://www.w3.org/2000/svg"
   version="1.1"
   width="64"
   height="64"
   id="svg2985">
  <defs
     id="defs2987" />
  <metadata
     id="metadata2990">
    <rdf:RDF>
      <cc:Work
         rdf:about="">
        <dc:format>image/svg+xml</dc:format>
        <dc:type
           rdf:resource="http://purl.org/dc/dcmitype/StillImage" />
        <dc:title></dc:title>
      </cc:Work>
    </rdf:RDF>
  </metadata>
  <g
     id="layer1">
    <rect
       width="50"
       height="47.090908"
       x="12.727273"
       y="15.272727"
       id="rect2995"
       style="fill:#0000ff;fill-rule:evenodd;stroke:#000000;stroke-width:1px;stroke-linecap:butt;stroke-linejoin:miter;stroke-opacity:1" />
    <path
       d="m 54.363638,27.09091 a 25.09091,20.545454 0 1 1 -50.18182,0 25.09091,20.545454 0 1 1 50.18182,0 z"
       transform="translate(-2.7272726,-4.5454545)"
       id="path3003"
       style="fill:#ff0000;fill-rule:evenodd;stroke:#000000;stroke-width:1px;stroke-linecap:butt;stroke-linejoin:miter;stroke-opacity:1" />
    <g
       id="g3009"
       style="fill:none;stroke:none">
      <path
         d="M 20.049586,30.263361 44.593747,43.438017 59.579382,34.061983 33.0682,27.503141 z"
         id="path3019"
         style="fill:#afafde;fill-rule:evenodd;stroke:none" />
      <path
         d="m 20.049586,21.688955 0,8.574406 13.018614,-2.76022 0,-6.95603 z"
         id="path3011"
         style="fill:#353564;fill-rule:evenodd;stroke:none" />
      <path
         d="m 33.0682,20.547111 26.511182,1.08461 0,12.430262 L 33.0682,27.503141 z"
         id="path3021"
         style="fill:#e9e9ff;fill-rule:evenodd;stroke:none" />
      <path
         d="M 20.049586,21.688955 44.593747,24.681505 59.579382,21.631721 33.0682,20.547111 z"
         id="path3013"
         style="fill:#4d4d9f;fill-rule:evenodd;stroke:none" />
      <path
         d="m 44.593747,24.681505 0,18.756512 14.985635,-9.376034 0,-12.430262 z"
         id="path3017"
         style="fill:#d7d7ff;fill-rule:evenodd;stroke:none" />
      <path
         d="m 20.049586,21.688955 24.544161,2.99255 0,18.756512 -24.544161,-13.174656 z"
         id="path3015"
         style="fill:#8686bf;fill-rule:evenodd;stroke:none" />
    </g>
    <g
       id="g3023"
       style="fill:none;stroke:none">
      <path
         d="M 4.8181822,30.54543 22.59764,44.099173 35.784434,38.484727 13.664073,28.861785 z"
         id="path3033"
         style="fill:#afafde;fill-rule:evenodd;stroke:none" />
      <path
         d="m 4.8181822,22.821119 0,7.724311 8.8458908,-1.683645 0,-6.962759 z"
         id="path3025"
         style="fill:#353564;fill-rule:evenodd;stroke:none" />
      <path
         d="m 13.664073,21.899026 22.120361,3.641015 0,12.944686 -22.120361,-9.622942 z"
         id="path3035"
         style="fill:#e9e9ff;fill-rule:evenodd;stroke:none" />
      <path
         d="M 4.8181822,22.821119 22.59764,28.249289 35.784434,25.540041 13.664073,21.899026 z"
         id="path3027"
         style="fill:#4d4d9f;fill-rule:evenodd;stroke:none" />
      <path
         d="m 22.59764,28.249289 0,15.849884 13.186794,-5.614446 0,-12.944686 z"
         id="path3031"
         style="fill:#d7d7ff;fill-rule:evenodd;stroke:none" />
      <path
         d="m 4.8181822,22.821119 17.7794578,5.42817 0,15.849884 L 4.8181822,30.54543 z"
         id="path3029"
         style="fill:#8686bf;fill-rule:evenodd;stroke:none" />
    </g>
    <path
       d="m 17.611053,45.371763 c 0.517475,0.508855 1.098808,0.941413 1.671651,1.384074 0.85039,0.633027 1.690414,1.279019 2.45991,2.009278 0.525848,0.555616 1.207208,0.897055 1.853124,1.285768 0.483819,0.277043 1.027262,0.438935 1.563111,0.584453 0.798122,0.183194 1.620704,0.206125 2.435834,0.227655 0.965623,-0.0094 1.917536,0.167422 2.875259,0.264017 0.806856,0.02099 1.564294,0.310523 2.347174,0.473659 0.685668,0.129303 1.384236,0.152782 2.079926,0.166886 0.566247,0.03242 1.12577,-0.06261 1.68746,-0.118592 0.570262,-0.09954 1.141157,-0.184144 1.719169,-0.218399 0.335139,-0.04072 0.682375,0.01607 1.012938,-0.06437 0.138983,-0.03382 0.271341,-0.09064 0.407044,-0.135854 0.966201,-0.414467 2.804971,-1.530571 -1.179192,0.754058 1.246315,-0.56816 2.347331,-1.46974 3.614532,-2.012364 0.501855,-0.13435 0.938813,-0.393685 1.390792,-0.637959 0.594116,-0.280894 1.163654,-0.606437 1.739901,-0.920418 -3.831967,2.467905 -1.968338,1.114825 -1.105534,0.516014 1.087241,-0.657071 2.13275,-1.441894 3.39612,-1.663329 0.464108,-0.0087 0.903494,-0.125593 1.330571,-0.300747 0.394724,-0.220823 0.794554,-0.420048 1.213737,-0.589264 0.4365,-0.241735 0.891005,-0.429306 1.377336,-0.540164 0.390123,-0.07598 0.788464,-0.08028 1.184388,-0.08301 0.364302,-4.3e-5 0.728599,0.0026 1.092898,0.0039 0.407173,-0.01524 0.805462,0.0061 1.206891,0.07104 0.513057,0.109524 0.939739,0.404546 1.342709,0.7252 0.42677,0.341512 0.740657,0.792149 1.064619,1.226109 0.287433,0.394645 0.615098,0.750237 0.984227,1.068244 0.363615,0.2863 0.685538,0.611414 0.925372,1.007999 0.199024,0.490253 0.221038,1.024038 0.245224,1.545973 0.01478,0.409972 0.01268,0.820282 0.01144,1.230442 0.006,0.359617 -0.01863,0.720419 0.01149,1.079098 0.103023,0.366925 0.244028,0.710208 0.232824,1.096499 -0.03166,0.148646 -0.0828,0.3285 -0.227774,0.411275 -1.766323,1.008496 -1.638886,1.316052 -2.799309,1.387397 -0.398309,0.02516 -0.798329,-0.02706 -1.193239,0.03437 -0.285777,0.06519 -0.584183,0.04861 -0.865252,0.13657 -0.140261,0.04389 -0.274274,0.10573 -0.412132,0.156669 -0.392187,0.131335 -0.831935,0.105249 -1.234175,0.02916 -0.527891,-0.08068 -0.94312,-0.441495 -1.371165,-0.732221 -0.411951,-0.326886 -0.918678,-0.486648 -1.396185,-0.692031 -0.622005,-0.288957 -1.210655,-0.641276 -1.854057,-0.881883 -0.480965,-0.208147 -0.991834,-0.324523 -1.494679,-0.46441 -0.362356,-0.125748 -0.725345,-0.04563 -1.094279,-0.0056 -0.444155,0.02024 -0.87926,0.113071 -1.319753,0.169832 -0.416413,0.04576 -0.827967,0.143464 -1.214727,0.304667 -0.634539,0.206054 -1.254305,0.437162 -1.868588,0.698284 -0.505159,0.238054 -0.993537,0.494687 -1.539032,0.626995 -0.430708,0.130349 -0.85055,0.294479 -1.274673,0.445095 -0.378136,0.08836 -0.752725,0.189997 -1.133066,0.26992 0.1587,-0.177656 -0.744014,0.39032 -0.519526,0.262589 0.694509,-0.395169 2.768854,-1.596696 2.077716,-1.195661 -2.482868,1.440688 -1.619649,1.048704 -2.706663,1.530798 -0.07949,0.02336 -0.162429,0.03718 -0.238474,0.07006 -0.09771,0.04225 -0.185858,0.103877 -0.279751,0.154038 -0.399885,0.213637 -0.791623,0.439445 -1.202563,0.631529 -0.441577,0.205027 -0.913722,0.253506 -1.393054,0.265742 -0.502297,0.0045 -1.004617,0.004 -1.506928,0.0035 -0.426942,-0.01405 -0.848177,-0.105973 -1.274708,-0.146321 -0.538734,-0.08371 -1.058172,-0.241353 -1.562365,-0.446408 -0.417222,-0.189785 -0.87278,-0.243342 -1.299315,-0.403252 C 27.18085,57.290933 26.812801,57.038245 26.388529,56.897035 25.859359,56.73629 25.434361,56.37612 24.998427,56.05178 24.524076,55.762092 24.078004,55.433786 23.655241,55.073749 23.332898,54.746624 22.948917,54.5162 22.54842,54.302543 22.13934,54.159582 21.822398,53.891757 21.522519,53.589711 21.125955,53.284016 20.794815,52.90763 20.404869,52.59297 20.011297,52.318435 19.690711,51.964953 19.368759,51.613431 19.085775,51.256643 18.803781,50.899499 18.537209,50.530272 18.26107,50.14483 17.939659,49.795775 17.61441,49.451961 17.305718,49.095893 17.03013,48.71107 16.684951,48.38872 16.38994,48.132782 16.09767,47.873942 15.810666,47.609053 c 0,0 2.262553,-1.400285 2.262553,-1.400285 l 0,0 c 0.291314,0.26441 0.590146,0.52017 0.88167,0.784307 0.33497,0.336974 0.626035,0.711732 0.930536,1.075809 0.333589,0.352413 0.663117,0.710274 0.947189,1.104749 0.260565,0.360569 0.536296,0.708968 0.813422,1.056994 0.316234,0.340873 0.632815,0.680554 1.011776,0.954147 0.383569,0.332275 0.742371,0.692241 1.139688,1.008049 0.292137,0.279516 0.608424,0.497651 0.986795,0.648563 0.411642,0.224633 0.784212,0.501519 1.12422,0.825711 0.419321,0.352726 0.864205,0.669238 1.322618,0.969305 0.428825,0.310603 0.852981,0.627998 1.373651,0.767862 0.407628,0.166453 0.782507,0.404899 1.207369,0.529677 0.434769,0.132929 0.88441,0.21931 1.297144,0.419244 0.496297,0.187408 1.004628,0.329619 1.535039,0.378793 0.418143,0.04991 0.834662,0.132937 1.257311,0.12561 0.497468,0.005 0.995564,0.01453 1.492562,-0.01299 0.457929,-0.03892 0.903355,-0.125346 1.315948,-0.339315 0.57726,-0.291146 1.13061,-0.631811 1.735207,-0.866416 0.06878,-0.03606 0.273339,-0.147426 0.206327,-0.108185 -0.68668,0.402114 -2.753165,1.597401 -2.065532,1.196918 0.85981,-0.500761 1.954821,-1.358006 3.055059,-1.647136 0.370767,-0.09162 0.747793,-0.162639 1.107945,-0.291682 0.423808,-0.155465 0.851063,-0.304612 1.285285,-0.428133 0.518266,-0.16458 0.993853,-0.425466 1.494547,-0.634569 0.625018,-0.25889 1.26728,-0.465207 1.898517,-0.707516 0.404652,-0.132876 0.824822,-0.211893 1.248358,-0.256297 0.444671,-0.06282 0.887319,-0.140616 1.335953,-0.171201 0.391062,-0.03774 0.771013,-0.0465 1.14662,0.09411 0.500126,0.149733 1.004511,0.286548 1.481187,0.504301 0.634249,0.264856 1.2304,0.609208 1.861034,0.882709 0.501934,0.20206 1.018756,0.377237 1.440295,0.729958 0.402255,0.283548 0.80225,0.581545 1.311056,0.621843 0.394822,0.03125 0.786907,0.02774 1.158209,-0.129437 0.42817,-0.141239 0.870276,-0.197752 1.317859,-0.243889 0.399423,-0.0174 0.800909,0.0031 1.198635,-0.04624 0.105119,-0.01952 0.402879,-0.132812 0.311147,-0.07789 -0.717572,0.429623 -1.453437,0.828208 -2.170676,1.258387 -0.09524,0.05712 0.518156,-0.189936 0.329437,-0.192063 0.104702,-0.358496 -0.104696,-0.695415 -0.196616,-1.037916 -0.05459,-0.366948 -0.019,-0.739126 -0.02548,-1.109272 0.0035,-0.40928 0.01037,-0.818576 0.0069,-1.227877 -0.01026,-0.478286 -0.01605,-0.97078 -0.19098,-1.422777 -0.220083,-0.376553 -0.537269,-0.6686 -0.874712,-0.940892 -0.376032,-0.336058 -0.709268,-0.71314 -1.008502,-1.119394 -0.308389,-0.417565 -0.60538,-0.85006 -1.026744,-1.164873 -0.382781,-0.290721 -0.787762,-0.545699 -1.276476,-0.60354 -0.396144,-0.0499 -0.793227,-0.03497 -1.191797,-0.03605 -0.363056,-0.0015 -0.726147,-0.0049 -1.089191,-1.05e-4 -0.382061,0.0094 -0.766442,0.0272 -1.137394,0.128054 -0.472511,0.140767 -0.908519,0.360604 -1.353663,0.56953 -0.412552,0.179876 -0.799275,0.411927 -1.218722,0.576468 -0.447111,0.142272 -0.900452,0.221059 -1.364878,0.280883 -1.030095,0.262606 -2.718168,1.261294 1.224024,-0.919914 -1.16711,0.647361 -1.984504,1.985802 -3.449151,2.115356 -0.565178,0.316055 -1.146906,0.599507 -1.719061,0.902621 -0.459665,0.255302 -0.932176,0.463076 -1.426486,0.642247 -0.977577,0.478912 -3.121536,1.771582 0.956804,-0.602985 -1.090111,0.630443 -2.203718,1.413291 -3.423422,1.8392 -0.472865,0.127122 -0.95364,0.117577 -1.439976,0.142709 -0.575092,0.05136 -1.144324,0.142763 -1.715674,0.224363 -0.566438,0.05723 -1.132887,0.13192 -1.70363,0.08785 -0.699897,-0.02739 -1.40209,-0.08015 -2.089453,-0.220256 -0.768154,-0.176863 -1.521327,-0.427964 -2.315714,-0.461432 -0.951558,-0.11138 -1.900907,-0.271357 -2.862403,-0.248022 -0.837282,-0.02777 -1.682423,-0.05361 -2.499046,-0.259522 -0.558228,-0.155091 -1.120925,-0.315782 -1.606288,-0.644177 -0.651653,-0.402287 -1.325578,-0.779617 -1.84422,-1.357551 -0.759018,-0.726139 -1.584888,-1.378066 -2.443125,-1.983272 -0.597722,-0.432148 -1.180583,-0.881136 -1.757796,-1.340027 0,0 2.277347,-1.430462 2.277347,-1.430462 z"
       id="path3039"
       style="fill:#000000;fill-opacity:1;fill-rule:nonzero;stroke:none" />
    <text
       x="6.9910717"
       y="17.579878"
       transform="scale(0.9855217,1.014691)"
       id="text3041"
       xml:space="preserve"
       style="font-size:8.46604729px;font-style:normal;font-weight:normal;line-height:125%;letter-spacing:0px;word-spacing:0px;fill:#000000;fill-opacity:1;stroke:none;font-family:Sans"><tspan
         x="6.9910717"
         y="17.579878"
         rotate="0.1 0.1 0.1 0.1 0.1 0.1 0.2 0.1 0.1 0"
         id="tspan3043">Mein Text</tspan></text>
  </g>
</svg>
